<svg width="183" height="183" viewBox="0 0 183 183" fill="none" xmlns="http://www.w3.org/2000/svg">
<path d="M175.5 0H7.3125C3.26777 0 0 3.26777 0 7.3125V175.5C0 179.545 3.26777 182.812 7.3125 182.812H175.5C179.545 182.812 182.812 179.545 182.812 175.5V7.3125C182.812 3.26777 179.545 0 175.5 0ZM154.385 53.3584H139.783C128.334 53.3584 126.118 58.7971 126.118 66.7951V84.4137H153.448L149.883 111.996H126.118V182.812H97.6219V112.018H73.7877V84.4137H97.6219V64.0758C97.6219 40.4701 112.041 27.6047 133.11 27.6047C143.211 27.6047 151.871 28.3588 154.408 28.7016V53.3584H154.385Z" fill="#D0D0D0"/>
</svg>
