<svg width="172" height="176" viewBox="0 0 172 176" fill="none" xmlns="http://www.w3.org/2000/svg">
<path d="M165.062 0.5H6.9375C3.13477 0.5 0.0625 3.62812 0.0625 7.5V168.5C0.0625 172.372 3.13477 175.5 6.9375 175.5H165.062C168.865 175.5 171.938 172.372 171.938 168.5V7.5C171.938 3.62812 168.865 0.5 165.062 0.5ZM51.0449 149.622H25.543V66.1031H51.0449V149.622ZM38.3047 54.6844C35.3812 54.6844 32.5234 53.8017 30.0927 52.148C27.6619 50.4943 25.7674 48.1438 24.6486 45.3938C23.5298 42.6437 23.2371 39.6177 23.8075 36.6983C24.3778 33.7789 25.7856 31.0972 27.8528 28.9924C29.92 26.8876 32.5537 25.4543 35.421 24.8736C38.2883 24.2928 41.2603 24.5909 43.9612 25.73C46.6621 26.8691 48.9707 28.7981 50.5948 31.273C52.219 33.748 53.0859 36.6578 53.0859 39.6344C53.0645 47.9469 46.4473 54.6844 38.3047 54.6844ZM146.521 149.622H121.041V109C121.041 99.3094 120.869 86.8625 107.785 86.8625C94.5293 86.8625 92.4883 97.4062 92.4883 108.3V149.622H67.0293V66.1031H91.4785V77.5219H91.8223C95.2168 70.9594 103.531 64.025 115.949 64.025C141.773 64.025 146.521 81.3281 146.521 103.816V149.622V149.622Z" fill="#D0D0D0"/>
</svg>
