<svg width="169" height="169" viewBox="0 0 169 169" fill="none" xmlns="http://www.w3.org/2000/svg">
<path d="M0 0V169H169V0H0ZM108.18 103.367C95.2852 110.027 84.8207 106.75 82.0726 105.376C79.3245 104.002 76.9991 100.725 76.9991 100.725C76.9991 100.725 73.8283 114.36 71.2912 121.442C68.7541 128.524 60.5098 138.037 60.5098 138.037C60.5098 138.037 57.8676 127.361 59.7702 115.734C61.6728 104.108 67.8035 79.0571 67.8035 79.0571C67.8035 79.0571 64.1041 71.6582 67.169 64.3645C70.234 57.0715 75.5192 53.689 82.4953 56.3312C89.4714 58.9735 86.0889 68.9094 85.3493 71.3407C84.6097 73.7719 79.7472 86.2442 81.2271 90.5781C82.707 94.9119 92.9599 104.108 105.326 87.1955C117.693 70.2835 110.849 52.1032 100.465 45.444C93.0448 40.6867 75.0122 35.4739 61.8846 50.3064C45.607 68.6984 59.9819 84.5533 59.9819 84.5533L56.1766 93.432C56.1766 93.432 40.7445 90.3671 42.1185 67.7471C43.4926 45.1271 64.9495 30.858 85.0324 30.9639C105.115 31.0697 118.857 41.8511 125.092 57.8112C131.329 73.7719 121.075 96.7087 108.18 103.367Z" fill="#D0D0D0"/>
</svg>
