<svg width="181" height="181" viewBox="0 0 181 181" fill="none" xmlns="http://www.w3.org/2000/svg">
<path d="M173.516 0.265625H7.48438C3.4915 0.265625 0.265625 3.4915 0.265625 7.48438V173.516C0.265625 177.508 3.4915 180.734 7.48438 180.734H173.516C177.508 180.734 180.734 177.508 180.734 173.516V7.48438C180.734 3.4915 177.508 0.265625 173.516 0.265625ZM139.069 65.6179C139.136 66.6781 139.136 67.7835 139.136 68.8663C139.136 101.982 113.916 140.129 67.8286 140.129C53.6167 140.129 40.4425 136.001 29.3437 128.895C31.3739 129.12 33.314 129.211 35.3894 129.211C47.1198 129.211 57.9028 125.24 66.4977 118.518C55.4891 118.292 46.24 111.073 43.0818 101.148C46.9394 101.712 50.4134 101.712 54.3837 100.696C48.7153 99.5449 43.6204 96.4664 39.9646 91.984C36.3088 87.5016 34.3175 81.8918 34.3291 76.1076V75.7918C37.6452 77.6642 41.5479 78.8146 45.631 78.9726C42.1985 76.685 39.3835 73.5858 37.4357 69.9498C35.4878 66.3138 34.4672 62.2533 34.4645 58.1284C34.4645 53.4588 35.6826 49.1952 37.8708 45.4956C44.1625 53.2408 52.0135 59.5754 60.9136 64.0876C69.8137 68.5999 79.5638 71.1888 89.53 71.6861C85.9883 54.6544 98.7113 40.8711 114.006 40.8711C121.225 40.8711 127.722 43.8939 132.301 48.7666C137.963 47.7063 143.377 45.5858 148.205 42.7435C146.333 48.541 142.407 53.4362 137.196 56.5268C142.249 55.9854 147.122 54.5867 151.634 52.6241C148.227 57.6321 143.964 62.0762 139.069 65.6179V65.6179Z" fill="#D0D0D0"/>
</svg>
